<svg width="30" height="15" viewBox="0 0 30 15" fill="none" xmlns="http://www.w3.org/2000/svg">
<path d="M 19.719 10.973 A 3.112 3.112 0 1 1 22.831 14 A 3.067 3.067 0 0 1 19.719 10.973 Z m 2.171 0 a 0.94 0.94 0 1 0 0.941 -0.913 A 0.929 0.929 0 0 0 21.891 10.973 Z m -17.628 0 A 3.068 3.068 0 0 1 7.375 7.949 a 3.027 3.027 0 1 1 0 6.051 A 3.069 3.069 0 0 1 4.263 10.973 Z m 2.172 0 a 0.939 0.939 0 1 0 0.941 -0.913 A 0.93 0.93 0 0 0 6.435 10.973 Z m 20.327 0.376 a 3.377 3.377 0 0 0 0.039 -0.366 a 3.846 3.846 0 0 0 -7.688 0 a 3.287 3.287 0 0 0 0.039 0.366 h -8.1 a 3.377 3.377 0 0 0 0.038 -0.366 A 3.784 3.784 0 0 0 7.243 7.261 A 3.785 3.785 0 0 0 3.4 10.982 a 3.564 3.564 0 0 0 0.038 0.366 H 0.509 A 0.5 0.5 0 0 1 0 10.855 V 8.942 a 0.394 0.394 0 0 1 0.4 -0.387 V 7.111 A 1.46 1.46 0 0 1 1.532 5.705 L 6.716 4.453 l 3.852 -3 A 6.949 6.949 0 0 1 14.831 0 l 6.907 0 A 1.807 1.807 0 0 1 22.93 0.444 l 3.4 2.965 l 1.093 -0.058 a 1.484 1.484 0 0 1 1.567 1.27 l 0.5 3.937 A 0.5 0.5 0 0 1 30 9.051 v 1.8 a 0.5 0.5 0 0 1 -0.51 0.494 Z M 11.448 2.755 L 9.6 4.191 l 9.637 -0.472 V 1.549 H 14.984 A 5.752 5.752 0 0 0 11.448 2.755 Z m 9.394 0.883 l 3.182 -0.156 L 22.057 1.769 a 0.888 0.888 0 0 0 -0.588 -0.219 h -0.626 Z" fill="#FD4100"/>
</svg>
